<?xml version="1.0" encoding="utf-8"?>
<!-- Generator: Adobe Illustrator 19.2.1, SVG Export Plug-In . SVG Version: 6.00 Build 0)  -->
<svg version="1.1" xmlns="http://www.w3.org/2000/svg" xmlns:xlink="http://www.w3.org/1999/xlink" x="0px" y="0px"
	 viewBox="0 0 47 170" style="enable-background:new 0 0 47 170;" xml:space="preserve">
<style type="text/css">
	.st0{display:none;}
	.st1{display:inline;fill:#FFCBCC;}
	.st2{fill:#041034;}
</style>
<g id="eye-pads" class="st0">
	<rect y="136" class="st1" width="47" height="34"/>
	<rect class="st1" width="47" height="34"/>
	<rect y="34" class="st1" width="47" height="34"/>
	<rect y="102" class="st1" width="47" height="34"/>
	<rect y="68" class="st1" width="47" height="34"/>
</g>
<g id="eye-sprite">
	<g>
		<path class="st2" d="M23.5,169.7c-8,0-15.8-4-22.8-11.6l4.1-3.7c5.8,6.4,12.3,9.8,18.6,9.8c6.4,0,12.8-3.4,18.6-9.8l4.1,3.7
			C39.3,165.7,31.5,169.7,23.5,169.7z"/>
	</g>
	<g>
		<path class="st2" d="M23.5,0.3c-8,0-15.8,4-22.8,11.6l4.1,3.7c5.8-6.4,12.3-9.8,18.6-9.8c6.4,0,12.8,3.4,18.6,9.8l4.1-3.7
			C39.3,4.3,31.5,0.3,23.5,0.3z"/>
		<path class="st2" d="M23.5,7.8c-5.1,0-9.3,4.2-9.3,9.3c0,5.1,4.2,9.3,9.3,9.3c5.1,0,9.3-4.2,9.3-9.3C32.8,11.9,28.6,7.8,23.5,7.8z
			 M23.5,20.7c-2,0-3.7-1.7-3.7-3.7s1.7-3.7,3.7-3.7s3.7,1.7,3.7,3.7S25.6,20.7,23.5,20.7z"/>
	</g>
	<path class="st2" d="M45.7,45.5c-13.9-8.8-30.5-8.8-44.4,0l3,4.7c3.8-2.4,7.9-4.1,12.1-5c-1.3,1.6-2.1,3.7-2.1,5.9
		c0,5.1,4.2,9.3,9.3,9.3c5.1,0,9.3-4.2,9.3-9.3c0-2.2-0.8-4.3-2.1-5.9c4.1,0.9,8.2,2.5,12,5L45.7,45.5z M23.5,54.8
		c-2,0-3.7-1.7-3.7-3.7s1.7-3.7,3.7-3.7s3.7,1.7,3.7,3.7S25.6,54.8,23.5,54.8z"/>
	<path class="st2" d="M44.2,82.3H2.8v5.6h11.9c1.2,3.8,4.7,6.5,8.8,6.5c4.1,0,7.7-2.7,8.8-6.5h11.8V82.3z M23.5,88.8
		c-0.9,0-1.8-0.4-2.4-0.9H26C25.3,88.5,24.5,88.8,23.5,88.8z"/>
	<path class="st2" d="M42.8,119.8c-12,7.7-26.4,7.7-38.4,0l-3,4.7c6.9,4.4,14.6,6.6,22.2,6.6c7.6,0,15.2-2.2,22.2-6.6L42.8,119.8z"
		/>
</g>
</svg>
